<svg id="visual" viewBox="0 0 900 600" width="900" height="600" xmlns="http://www.w3.org/2000/svg" xmlns:xlink="http://www.w3.org/1999/xlink" version="1.1"><rect x="0" y="0" width="900" height="600" fill="#FFFFFF"></rect><defs><linearGradient id="grad1_0" x1="33.3%" y1="0%" x2="100%" y2="100%"><stop offset="20%" stop-color="#7a37ed" stop-opacity="1"></stop><stop offset="80%" stop-color="#7a37ed" stop-opacity="1"></stop></linearGradient></defs><defs><linearGradient id="grad1_1" x1="33.3%" y1="0%" x2="100%" y2="100%"><stop offset="20%" stop-color="#7a37ed" stop-opacity="1"></stop><stop offset="80%" stop-color="#b07cf5" stop-opacity="1"></stop></linearGradient></defs><defs><linearGradient id="grad1_2" x1="33.3%" y1="0%" x2="100%" y2="100%"><stop offset="20%" stop-color="#dabdfb" stop-opacity="1"></stop><stop offset="80%" stop-color="#b07cf5" stop-opacity="1"></stop></linearGradient></defs><defs><linearGradient id="grad1_3" x1="33.3%" y1="0%" x2="100%" y2="100%"><stop offset="20%" stop-color="#dabdfb" stop-opacity="1"></stop><stop offset="80%" stop-color="#ffffff" stop-opacity="1"></stop></linearGradient></defs><defs><linearGradient id="grad2_0" x1="0%" y1="0%" x2="66.7%" y2="100%"><stop offset="20%" stop-color="#7a37ed" stop-opacity="1"></stop><stop offset="80%" stop-color="#7a37ed" stop-opacity="1"></stop></linearGradient></defs><defs><linearGradient id="grad2_1" x1="0%" y1="0%" x2="66.7%" y2="100%"><stop offset="20%" stop-color="#b07cf5" stop-opacity="1"></stop><stop offset="80%" stop-color="#7a37ed" stop-opacity="1"></stop></linearGradient></defs><defs><linearGradient id="grad2_2" x1="0%" y1="0%" x2="66.7%" y2="100%"><stop offset="20%" stop-color="#b07cf5" stop-opacity="1"></stop><stop offset="80%" stop-color="#dabdfb" stop-opacity="1"></stop></linearGradient></defs><defs><linearGradient id="grad2_3" x1="0%" y1="0%" x2="66.7%" y2="100%"><stop offset="20%" stop-color="#ffffff" stop-opacity="1"></stop><stop offset="80%" stop-color="#dabdfb" stop-opacity="1"></stop></linearGradient></defs><g transform="translate(900, 0)"><path d="M0 459.7C-55.9 445.4 -111.7 431 -170.7 412.1C-229.6 393.1 -291.7 369.5 -325.1 325.1C-358.4 280.6 -363 215.3 -380.6 157.7C-398.3 100 -429 50 -459.7 0L0 0Z" fill="#eddefd"></path><path d="M0 344.8C-41.9 334 -83.8 323.3 -128 309C-172.2 294.8 -218.8 277.1 -243.8 243.8C-268.8 210.5 -272.2 161.5 -285.5 118.2C-298.7 75 -321.7 37.5 -344.8 0L0 0Z" fill="#c69cf8"></path><path d="M0 229.9C-27.9 222.7 -55.9 215.5 -85.3 206C-114.8 196.5 -145.9 184.8 -162.5 162.5C-179.2 140.3 -181.5 107.7 -190.3 78.8C-199.1 50 -214.5 25 -229.9 0L0 0Z" fill="#975bf1"></path><path d="M0 114.9C-14 111.3 -27.9 107.8 -42.7 103C-57.4 98.3 -72.9 92.4 -81.3 81.3C-89.6 70.2 -90.7 53.8 -95.2 39.4C-99.6 25 -107.2 12.5 -114.9 0L0 0Z" fill="#7a37ed"></path></g><g transform="translate(0, 600)"><path d="M0 -459.7C61 -455.2 122.1 -450.7 175.9 -424.7C229.7 -398.8 276.3 -351.4 300.5 -300.5C324.7 -249.7 326.4 -195.3 349.2 -144.7C372 -94 415.9 -47 459.7 0L0 0Z" fill="#eddefd"></path><path d="M0 -344.8C45.8 -341.4 91.6 -338 131.9 -318.5C172.3 -299.1 207.3 -263.5 225.4 -225.4C243.5 -187.2 244.8 -146.5 261.9 -108.5C279 -70.5 311.9 -35.2 344.8 0L0 0Z" fill="#c69cf8"></path><path d="M0 -229.9C30.5 -227.6 61 -225.3 88 -212.4C114.9 -199.4 138.2 -175.7 150.3 -150.3C162.3 -124.8 163.2 -97.7 174.6 -72.3C186 -47 207.9 -23.5 229.9 0L0 0Z" fill="#975bf1"></path><path d="M0 -114.9C15.3 -113.8 30.5 -112.7 44 -106.2C57.4 -99.7 69.1 -87.8 75.1 -75.1C81.2 -62.4 81.6 -48.8 87.3 -36.2C93 -23.5 104 -11.7 114.9 0L0 0Z" fill="#7a37ed"></path></g></svg>