<svg id="visual" viewBox="0 0 900 600" width="900" height="600" xmlns="http://www.w3.org/2000/svg" xmlns:xlink="http://www.w3.org/1999/xlink" version="1.1"><path d="M0 223L30 246C60 269 120 315 180 327.8C240 340.7 300 320.3 360 305C420 289.7 480 279.3 540 288C600 296.7 660 324.3 720 322.3C780 320.3 840 288.7 870 272.8L900 257L900 601L870 601C840 601 780 601 720 601C660 601 600 601 540 601C480 601 420 601 360 601C300 601 240 601 180 601C120 601 60 601 30 601L0 601Z" fill="#7a37ed" stroke-linecap="round" stroke-linejoin="miter"></path></svg>